# xmcd
#
# Track frame offsets: 
#        150
#        11382
#        22587
#        38945
#        52337
#        68570
#        83345
#        96292
#        111510
#        123817
#
# Disc length: 1872 seconds
#
# Revision: 1
# Processed by: cddbd v1.4PL0 Copyright (c) Steve Scherf et al.
# Submitted via: ExactAudioCopy v0.90b2
#
DISCID=71074e0a
DTITLE=Janie Frickie - Super Hits
DYEAR=1900
DGENRE=
TTITLE0=Down To My Last Broken Heart
TTITLE1=Don't Worry 'Bout Me Baby
TTITLE2=It Ain't Easy Bein' Easy
TTITLE3=He's A Heartache (Lookin' For A Place To Happen)
TTITLE4=Tell Me A Lie
TTITLE5=Let's Stop Talkin' About It
TTITLE6=Your Heart's Not In It
TTITLE7=You Don't Know Love
TTITLE8=She's Single Again
TTITLE9=Always Have Always Will
EXTD=
EXTT0=
EXTT1=
EXTT2=
EXTT3=
EXTT4=
EXTT5=
EXTT6=
EXTT7=
EXTT8=
EXTT9=
PLAYORDER=
